<mxfile host="Electron" modified="2024-06-26T19:18:57.713Z" agent="Mozilla/5.0 (Windows NT 10.0; Win64; x64) AppleWebKit/537.36 (KHTML, like Gecko) draw.io/24.6.1 Chrome/124.0.6367.207 Electron/30.0.6 Safari/537.36" etag="Qi_taelBbFMfx-hgH7W3" version="24.6.1" type="device">
  <diagram name="Page-1" id="c4acf3e9-155e-7222-9cf6-157b1a14988f">
    <mxGraphModel dx="4948" dy="2792" grid="1" gridSize="10" guides="1" tooltips="1" connect="1" arrows="1" fold="1" page="0" pageScale="1" pageWidth="850" pageHeight="1100" background="none" math="0" shadow="0">
      <root>
        <mxCell id="0" />
        <mxCell id="1" parent="0" />
        <mxCell id="UFMIZaM9GUYhuQorNR83-1" value="" style="rounded=0;whiteSpace=wrap;html=1;fillColor=#f8cecc;strokeColor=#b85450;opacity=30;" parent="1" vertex="1">
          <mxGeometry x="-410" y="340" width="610" height="880" as="geometry" />
        </mxCell>
        <mxCell id="2AT8lo1jDJxgE_ywK8P_-1" value="" style="rounded=0;whiteSpace=wrap;html=1;fillColor=#fad7ac;strokeColor=#b46504;opacity=30;" parent="1" vertex="1">
          <mxGeometry x="250" y="-90" width="3760" height="2990" as="geometry" />
        </mxCell>
        <mxCell id="2AT8lo1jDJxgE_ywK8P_-129" value="" style="rounded=0;whiteSpace=wrap;html=1;fillColor=#dae8fc;strokeColor=#6c8ebf;opacity=30;" parent="1" vertex="1">
          <mxGeometry x="2260" y="1840" width="1480" height="1030" as="geometry" />
        </mxCell>
        <mxCell id="2AT8lo1jDJxgE_ywK8P_-40" value="" style="rounded=0;whiteSpace=wrap;html=1;fillColor=#dae8fc;strokeColor=#6c8ebf;opacity=30;" parent="1" vertex="1">
          <mxGeometry x="920" y="1840" width="1300" height="830" as="geometry" />
        </mxCell>
        <mxCell id="2AT8lo1jDJxgE_ywK8P_-41" value="" style="rounded=0;whiteSpace=wrap;html=1;fillColor=#b1ddf0;strokeColor=#10739e;opacity=30;" parent="1" vertex="1">
          <mxGeometry x="2360" y="950" width="1480" height="780" as="geometry" />
        </mxCell>
        <mxCell id="2AT8lo1jDJxgE_ywK8P_-3" value="view" style="shape=umlFrame;whiteSpace=wrap;html=1;pointerEvents=0;width=90;height=40;fillColor=#fad7ac;strokeColor=#b46504;" parent="1" vertex="1">
          <mxGeometry x="250" y="-90" width="3760" height="2990" as="geometry" />
        </mxCell>
        <mxCell id="2AT8lo1jDJxgE_ywK8P_-10" value="" style="rounded=0;whiteSpace=wrap;html=1;fillColor=#b0e3e6;strokeColor=#0e8088;opacity=30;" parent="1" vertex="1">
          <mxGeometry x="390" y="10" width="1250" height="1750" as="geometry" />
        </mxCell>
        <mxCell id="2AT8lo1jDJxgE_ywK8P_-17" style="edgeStyle=orthogonalEdgeStyle;rounded=0;orthogonalLoop=1;jettySize=auto;html=1;dashed=1;endArrow=block;endFill=0;" parent="1" source="2AT8lo1jDJxgE_ywK8P_-4" target="2AT8lo1jDJxgE_ywK8P_-16" edge="1">
          <mxGeometry relative="1" as="geometry" />
        </mxCell>
        <mxCell id="2AT8lo1jDJxgE_ywK8P_-19" style="edgeStyle=orthogonalEdgeStyle;rounded=0;orthogonalLoop=1;jettySize=auto;html=1;dashed=1;endArrow=block;endFill=0;exitX=0;exitY=0.5;exitDx=0;exitDy=0;" parent="1" source="2AT8lo1jDJxgE_ywK8P_-5" target="2AT8lo1jDJxgE_ywK8P_-18" edge="1">
          <mxGeometry relative="1" as="geometry">
            <Array as="points">
              <mxPoint x="-15" y="1203" />
            </Array>
          </mxGeometry>
        </mxCell>
        <mxCell id="2AT8lo1jDJxgE_ywK8P_-21" style="edgeStyle=orthogonalEdgeStyle;rounded=0;orthogonalLoop=1;jettySize=auto;html=1;" parent="1" source="2AT8lo1jDJxgE_ywK8P_-4" target="2AT8lo1jDJxgE_ywK8P_-20" edge="1">
          <mxGeometry relative="1" as="geometry" />
        </mxCell>
        <mxCell id="2AT8lo1jDJxgE_ywK8P_-137" style="edgeStyle=orthogonalEdgeStyle;rounded=0;orthogonalLoop=1;jettySize=auto;html=1;entryX=0.5;entryY=0;entryDx=0;entryDy=0;" parent="1" source="2AT8lo1jDJxgE_ywK8P_-4" target="2AT8lo1jDJxgE_ywK8P_-133" edge="1">
          <mxGeometry relative="1" as="geometry">
            <Array as="points">
              <mxPoint x="650" y="890" />
              <mxPoint x="3090" y="890" />
            </Array>
          </mxGeometry>
        </mxCell>
        <mxCell id="2AT8lo1jDJxgE_ywK8P_-160" style="edgeStyle=orthogonalEdgeStyle;rounded=0;orthogonalLoop=1;jettySize=auto;html=1;entryX=0;entryY=0.25;entryDx=0;entryDy=0;exitX=0.75;exitY=0;exitDx=0;exitDy=0;" parent="1" source="2AT8lo1jDJxgE_ywK8P_-4" target="2AT8lo1jDJxgE_ywK8P_-143" edge="1">
          <mxGeometry relative="1" as="geometry">
            <Array as="points">
              <mxPoint x="760" y="910" />
              <mxPoint x="1871" y="910" />
              <mxPoint x="1871" y="1622" />
            </Array>
          </mxGeometry>
        </mxCell>
        <mxCell id="2AT8lo1jDJxgE_ywK8P_-161" style="edgeStyle=orthogonalEdgeStyle;rounded=0;orthogonalLoop=1;jettySize=auto;html=1;exitX=0.948;exitY=0.002;exitDx=0;exitDy=0;exitPerimeter=0;" parent="1" source="2AT8lo1jDJxgE_ywK8P_-4" target="2AT8lo1jDJxgE_ywK8P_-149" edge="1">
          <mxGeometry relative="1" as="geometry">
            <Array as="points">
              <mxPoint x="847" y="930" />
              <mxPoint x="1790" y="930" />
              <mxPoint x="1790" y="1760" />
              <mxPoint x="3205" y="1760" />
            </Array>
          </mxGeometry>
        </mxCell>
        <mxCell id="2AT8lo1jDJxgE_ywK8P_-177" style="edgeStyle=orthogonalEdgeStyle;rounded=0;orthogonalLoop=1;jettySize=auto;html=1;exitX=0.25;exitY=0;exitDx=0;exitDy=0;" parent="1" source="2AT8lo1jDJxgE_ywK8P_-4" target="2AT8lo1jDJxgE_ywK8P_-169" edge="1">
          <mxGeometry relative="1" as="geometry" />
        </mxCell>
        <mxCell id="2AT8lo1jDJxgE_ywK8P_-4" value="&lt;b&gt;Flow&lt;/b&gt;" style="swimlane;fontStyle=1;align=center;verticalAlign=top;childLayout=stackLayout;horizontal=1;startSize=26;horizontalStack=0;resizeParent=1;resizeParentMax=0;resizeLast=0;collapsible=1;marginBottom=0;whiteSpace=wrap;html=1;" parent="1" vertex="1">
          <mxGeometry x="430" y="1040" width="440" height="580" as="geometry" />
        </mxCell>
        <mxCell id="2AT8lo1jDJxgE_ywK8P_-5" value="&lt;p style=&quot;margin:0 0 0 4px;line-height:1.6;&quot;&gt;# latestEvents: List&amp;lt;String&amp;gt;&lt;br&gt;- ended: boolean&lt;br&gt;~ lastEvent: Event&lt;br&gt;- events: EventList&lt;br&gt;- lastPlayerReconnected: String&lt;br&gt;# inputReader: InputReader&lt;br&gt;- clientActions: ClientAction&lt;br&gt;- ui: UI&lt;br&gt;- row: int&lt;br&gt;- col: int&lt;br&gt;- gameImmutable: GameImmutable&lt;br&gt;- nickname: String&lt;br&gt;- frontCard: boolean&lt;br&gt;# inputProcessor: InputProcessor&lt;br&gt;&lt;/p&gt;" style="text;strokeColor=none;fillColor=none;align=left;verticalAlign=top;spacingLeft=4;spacingRight=4;overflow=hidden;rotatable=0;points=[[0,0.5],[1,0.5]];portConstraint=eastwest;whiteSpace=wrap;html=1;" parent="2AT8lo1jDJxgE_ywK8P_-4" vertex="1">
          <mxGeometry y="26" width="440" height="274" as="geometry" />
        </mxCell>
        <mxCell id="2AT8lo1jDJxgE_ywK8P_-6" value="" style="line;strokeWidth=1;fillColor=none;align=left;verticalAlign=middle;spacingTop=-1;spacingLeft=3;spacingRight=3;rotatable=0;labelPosition=right;points=[];portConstraint=eastwest;strokeColor=inherit;" parent="2AT8lo1jDJxgE_ywK8P_-4" vertex="1">
          <mxGeometry y="300" width="440" height="8" as="geometry" />
        </mxCell>
        <mxCell id="2AT8lo1jDJxgE_ywK8P_-7" value="&lt;p style=&quot;margin:0 0 0 4px;line-height:1.6;&quot;&gt;- handlePlayerReconnection(Event): void&lt;br&gt;&lt;/p&gt;&lt;p style=&quot;margin:0 0 0 4px;line-height:1.6;&quot;&gt;&lt;span style=&quot;background-color: initial;&quot;&gt;- statusNotInAGame(Event): void&lt;/span&gt;&lt;/p&gt;&lt;p style=&quot;margin:0 0 0 4px;line-height:1.6;&quot;&gt;- processEvent(Event): void&lt;br&gt;&lt;/p&gt;&lt;p style=&quot;margin:0 0 0 4px;line-height:1.6;&quot;&gt;- updateGameStateBasedOnModel(Event): void&lt;br&gt;&lt;/p&gt;&lt;p style=&quot;margin:0 0 0 4px;line-height:1.6;&quot;&gt;- statusRunning(Event): void&lt;br&gt;&lt;/p&gt;&lt;p style=&quot;margin:0 0 0 4px;line-height:1.6;&quot;&gt;- askGameSize(GameImmutable): void&lt;br&gt;&lt;/p&gt;&lt;p style=&quot;margin:0 0 0 4px;line-height:1.6;&quot;&gt;- askSelectGame(): boolean&lt;br&gt;&lt;/p&gt;&lt;p style=&quot;margin:0 0 0 4px;line-height:1.6;&quot;&gt;- askNickname(): void&lt;br&gt;&lt;/p&gt;&lt;p style=&quot;margin:0 0 0 4px;line-height:1.6;&quot;&gt;- statusEnded(Event): void&lt;br&gt;&lt;/p&gt;&lt;p style=&quot;margin:0 0 0 4px;line-height:1.6;&quot;&gt;- askGameId(): Integer&lt;br&gt;&lt;/p&gt;&lt;p style=&quot;margin:0 0 0 4px;line-height:1.6;&quot;&gt;- statusWait(Event): void&lt;br&gt;&lt;/p&gt;&lt;p style=&quot;margin:0 0 0 4px;line-height:1.6;&quot;&gt;+ run(): void&lt;br&gt;&lt;/p&gt;&lt;p style=&quot;margin:0 0 0 4px;line-height:1.6;&quot;&gt;+ youLeft(): void&lt;br&gt;&lt;/p&gt;&lt;p style=&quot;margin:0 0 0 4px;line-height:1.6;&quot;&gt;... metodi ereditati&lt;/p&gt;" style="text;strokeColor=none;fillColor=none;align=left;verticalAlign=top;spacingLeft=4;spacingRight=4;overflow=hidden;rotatable=0;points=[[0,0.5],[1,0.5]];portConstraint=eastwest;whiteSpace=wrap;html=1;" parent="2AT8lo1jDJxgE_ywK8P_-4" vertex="1">
          <mxGeometry y="308" width="440" height="272" as="geometry" />
        </mxCell>
        <mxCell id="2AT8lo1jDJxgE_ywK8P_-9" value="ui" style="shape=umlFrame;whiteSpace=wrap;html=1;pointerEvents=0;width=90;height=40;fillColor=#b0e3e6;strokeColor=#0e8088;" parent="1" vertex="1">
          <mxGeometry x="390" y="10" width="1250" height="1750" as="geometry" />
        </mxCell>
        <mxCell id="2AT8lo1jDJxgE_ywK8P_-16" value="&lt;p style=&quot;margin:0px;margin-top:4px;text-align:center;&quot;&gt;&lt;i&gt;&amp;lt;&amp;lt;Interface&amp;gt;&amp;gt;&lt;/i&gt;&lt;br&gt;&lt;b&gt;ClientAction&lt;/b&gt;&lt;/p&gt;&lt;hr size=&quot;1&quot; style=&quot;border-style:solid;&quot;&gt;&lt;p style=&quot;margin:0px;margin-left:4px;&quot;&gt;+ sendPing(String): void&lt;br&gt;+ selectCardObjective(Player, int): void&lt;br&gt;+ gameSizeUpdated(int): void&lt;br&gt;+ reconnectToGame(String): void&lt;br&gt;+ placeCardOnCodex(Player, int, boolean, int, int): void&lt;br&gt;+ joinFirstAvailableGame(String): void&lt;br&gt;+ drawCardFromDeck(Player, DeckType): void&lt;br&gt;+ placeStarterOnCodex(Player, Side): void&lt;br&gt;+ drawCardDisplayed(Player, DeckType, int): void&lt;br&gt;+ leaveGame(String): void&lt;br&gt;+ joinSpecificGame(String, int): void&lt;br&gt;+ createGame(String): void&lt;br&gt;+ sendChatMessage(ChatMessage): void&lt;br&gt;&lt;/p&gt;" style="verticalAlign=top;align=left;overflow=fill;html=1;whiteSpace=wrap;" parent="1" vertex="1">
          <mxGeometry x="-350" y="1520" width="510" height="240" as="geometry" />
        </mxCell>
        <mxCell id="2AT8lo1jDJxgE_ywK8P_-18" value="&lt;p style=&quot;margin:0px;margin-top:4px;text-align:center;&quot;&gt;&lt;i&gt;&amp;lt;&amp;lt;Interface&amp;gt;&amp;gt;&lt;/i&gt;&lt;br&gt;&lt;b&gt;GameListener&lt;/b&gt;&lt;br&gt;&lt;/p&gt;&lt;hr size=&quot;1&quot; style=&quot;border-style:solid;&quot;&gt;&lt;hr size=&quot;1&quot;&gt;&lt;p style=&quot;margin:0 0 0 4px;line-height:1.6;&quot;&gt;+ addedPoint(GameImmutable, Player, int): void&lt;br&gt;+ objectiveCardNotChosen(GameImmutable): void&lt;br&gt;+ requirementsPlacementNotRespected(GameImmutable, ArrayList&amp;lt;Value&amp;gt;): void&lt;br&gt;+ endGameConditionsReached(GameImmutable): void&lt;br&gt;+ cardAddedToHand(GameImmutable, Card): void&lt;br&gt;+ gameEnded(GameImmutable): void&lt;br&gt;+ playerReconnected(GameImmutable, String): void&lt;br&gt;+ sentChatMessage(GameImmutable, ChatMessage): void&lt;br&gt;+ cardNotAddedToHand(GameImmutable, String): void&lt;br&gt;+ invalidCoordinates(GameImmutable, int, int): void&lt;br&gt;+ objectiveCardChosen(GameImmutable, CardObjective, String): void&lt;br&gt;+ playerDisconnected(GameImmutable, String): void&lt;br&gt;+ gameStarted(GameImmutable): void&lt;br&gt;+ drawCard(GameImmutable, String): void&lt;br&gt;+ noGameToReconnect(GameImmutable, String): void&lt;br&gt;+ indexNotValid(GameImmutable, int): void&lt;br&gt;+ winnerDeclared(GameImmutable, ArrayList&amp;lt;String&amp;gt;): void&lt;br&gt;+ lastCircle(GameImmutable): void&lt;br&gt;+ nextTurn(GameImmutable): void&lt;br&gt;+ deckHasNoCards(GameImmutable, ArrayList&amp;lt;Card&amp;gt;): void&lt;br&gt;+ positionedCardIntoCodex(GameImmutable, int, int): void&lt;br&gt;+ joinUnableNicknameAlreadyInUse(Player): void&lt;br&gt;+ playerLeft(GameImmutable, String): void&lt;br&gt;+ canNotPlaceCard(GameImmutable, String): void&lt;br&gt;+ gameSizeUpdated(GameImmutable, int): void&lt;br&gt;+ joinUnableGameFull(GameImmutable, Player): void&lt;br&gt;+ gameCreated(GameImmutable): void&lt;br&gt;+ playerJoined(GameImmutable): void&lt;br&gt;+ gameIdNotExists(int): void&lt;br&gt;+ positionedStarterCardIntoCodex(GameImmutable, String): void&lt;br&gt;+ onlyOnePlayerConnected(GameImmutable, int): void&lt;br&gt;+ addedPointObjective(GameImmutable, int): void&lt;/p&gt;" style="verticalAlign=top;align=left;overflow=fill;html=1;whiteSpace=wrap;" parent="1" vertex="1">
          <mxGeometry x="-360" y="440" width="510" height="680" as="geometry" />
        </mxCell>
        <mxCell id="2AT8lo1jDJxgE_ywK8P_-20" value="&lt;p style=&quot;margin:0px;margin-top:4px;text-align:center;&quot;&gt;&lt;i&gt;&amp;lt;&amp;lt;enumeration&amp;gt;&amp;gt;&lt;/i&gt;&lt;br&gt;&lt;b&gt;OptionSelection&lt;/b&gt;&lt;/p&gt;&lt;hr size=&quot;1&quot;&gt;&lt;p style=&quot;margin:0 0 0 4px;line-height:1.6;&quot;&gt;+ TUI: &lt;br&gt;+ GUI: &lt;br&gt;+ SOCKET: &lt;br&gt;+ RMI: &lt;/p&gt;&lt;p style=&quot;margin:0 0 0 4px;line-height:1.6;&quot;&gt;&lt;br&gt;&lt;/p&gt;" style="verticalAlign=top;align=left;overflow=fill;fontSize=14;fontFamily=Helvetica;html=1;rounded=0;shadow=0;comic=0;labelBackgroundColor=none;strokeWidth=1;" parent="1" vertex="1">
          <mxGeometry x="496.5" y="1963" width="307" height="147" as="geometry" />
        </mxCell>
        <mxCell id="2AT8lo1jDJxgE_ywK8P_-27" value="&lt;p style=&quot;margin:0px;margin-top:4px;text-align:center;&quot;&gt;&lt;i&gt;&amp;lt;&amp;lt;abstract&amp;gt;&amp;gt;&lt;/i&gt;&lt;br&gt;&lt;b&gt;UI&lt;/b&gt;&lt;/p&gt;&lt;hr size=&quot;1&quot; style=&quot;border-style:solid;&quot;&gt;&lt;p style=&quot;margin:0px;margin-left:4px;&quot;&gt;# show_gameEnded(GameImmutable): void&lt;br&gt;# showYouLeft(): void&lt;br&gt;# show_sentMessage(GameImmutable, String): void&lt;br&gt;# show_inputGameIdMsg(): void&lt;br&gt;# showObjectiveChosen(GameImmutable, CardObjective, String): void&lt;br&gt;# show_chosenNickname(String): void&lt;br&gt;# showDesk(GameImmutable, String): void&lt;br&gt;# showReqNotRespected(GameImmutable, ArrayList&amp;lt;Value&amp;gt;): void&lt;br&gt;# showInvalidInput(): void&lt;br&gt;# show_sizeSetted(int, GameImmutable): void&lt;br&gt;# show_creatingNewGameMsg(String): void&lt;br&gt;# show_wrongSelectionHandMsg(): void&lt;br&gt;# showAskSide(GameImmutable, Card): void&lt;br&gt;# init(): void&lt;br&gt;# show_noConnectionError(): void&lt;br&gt;+ showChat(GameImmutable): void&lt;br&gt;# show_insertNicknameMsg(): void&lt;br&gt;# showNextTurn(GameImmutable, String): void&lt;br&gt;# show_playerHand(GameImmutable, String): void&lt;br&gt;# showWinner(GameImmutable): void&lt;br&gt;# addMessage(ChatMessage, GameImmutable): void&lt;br&gt;# showAskToChooseADeck(): void&lt;br&gt;# showAskCoordinates(GameImmutable): void&lt;br&gt;# show_GameTitle(): void&lt;br&gt;# getLengthLongestMessage(GameImmutable): int&lt;br&gt;# showCodex(GameImmutable): void&lt;br&gt;# resizeScreenView(int, int): void&lt;br&gt;# showInvalidNickname(String): void&lt;br&gt;# showObjectiveChosen(Game, Card): void&lt;br&gt;# show_returnToMenuMsg(): void&lt;br&gt;# show_menuOptions(): void&lt;br&gt;# showAskIndex(GameImmutable): void&lt;br&gt;# show_NaNMsg(): void&lt;br&gt;# showCardAddedToHand(GameImmutable, Card): void&lt;br&gt;# show_joiningToGameIdMsg(int, String): void&lt;br&gt;# show_askSideStarter(GameImmutable, String): void&lt;br&gt;# setNickname(String): void&lt;br&gt;# show_gameStarted(GameImmutable): void&lt;br&gt;# addLatestEvent(String, GameImmutable): void&lt;br&gt;# moveScreenView(int, int): void&lt;br&gt;# show_noAvailableGamesToJoin(String): void&lt;br&gt;# show_joiningFirstAvailableMsg(String): void&lt;br&gt;# showObjectiveNotChosen(GameImmutable): void&lt;br&gt;# showCardCannotBePlaced(GameImmutable, String): void&lt;br&gt;# showAskSize(GameImmutable): void&lt;br&gt;# show_playerJoined(GameImmutable, String): void&lt;br&gt;&lt;/p&gt;" style="verticalAlign=top;align=left;overflow=fill;html=1;whiteSpace=wrap;" parent="1" vertex="1">
          <mxGeometry x="1290" y="950" width="320" height="760" as="geometry" />
        </mxCell>
        <mxCell id="2AT8lo1jDJxgE_ywK8P_-43" style="edgeStyle=orthogonalEdgeStyle;rounded=0;orthogonalLoop=1;jettySize=auto;html=1;entryX=0.75;entryY=1;entryDx=0;entryDy=0;endArrow=block;endFill=0;dashed=1;exitX=0.5;exitY=0;exitDx=0;exitDy=0;" parent="1" source="2AT8lo1jDJxgE_ywK8P_-28" target="2AT8lo1jDJxgE_ywK8P_-27" edge="1">
          <mxGeometry relative="1" as="geometry" />
        </mxCell>
        <mxCell id="2AT8lo1jDJxgE_ywK8P_-98" style="edgeStyle=orthogonalEdgeStyle;rounded=0;orthogonalLoop=1;jettySize=auto;html=1;" parent="1" source="2AT8lo1jDJxgE_ywK8P_-28" target="2AT8lo1jDJxgE_ywK8P_-94" edge="1">
          <mxGeometry relative="1" as="geometry" />
        </mxCell>
        <mxCell id="2AT8lo1jDJxgE_ywK8P_-28" value="&lt;b&gt;Gui&lt;/b&gt;" style="swimlane;fontStyle=1;align=center;verticalAlign=top;childLayout=stackLayout;horizontal=1;startSize=26;horizontalStack=0;resizeParent=1;resizeParentMax=0;resizeLast=0;collapsible=1;marginBottom=0;whiteSpace=wrap;html=1;" parent="1" vertex="1">
          <mxGeometry x="2420" y="1900" width="440" height="80" as="geometry" />
        </mxCell>
        <mxCell id="2AT8lo1jDJxgE_ywK8P_-29" value="&lt;p style=&quot;margin:0 0 0 4px;line-height:1.6;&quot;&gt;&lt;br&gt;&lt;/p&gt;" style="text;strokeColor=none;fillColor=none;align=left;verticalAlign=top;spacingLeft=4;spacingRight=4;overflow=hidden;rotatable=0;points=[[0,0.5],[1,0.5]];portConstraint=eastwest;whiteSpace=wrap;html=1;" parent="2AT8lo1jDJxgE_ywK8P_-28" vertex="1">
          <mxGeometry y="26" width="440" height="4" as="geometry" />
        </mxCell>
        <mxCell id="2AT8lo1jDJxgE_ywK8P_-30" value="" style="line;strokeWidth=1;fillColor=none;align=left;verticalAlign=middle;spacingTop=-1;spacingLeft=3;spacingRight=3;rotatable=0;labelPosition=right;points=[];portConstraint=eastwest;strokeColor=inherit;" parent="2AT8lo1jDJxgE_ywK8P_-28" vertex="1">
          <mxGeometry y="30" width="440" height="8" as="geometry" />
        </mxCell>
        <mxCell id="2AT8lo1jDJxgE_ywK8P_-31" value="&lt;p style=&quot;margin:0 0 0 4px;line-height:1.6;&quot;&gt;Methods to display the various scenes of the GUI&lt;br&gt;&lt;/p&gt;" style="text;strokeColor=none;fillColor=none;align=left;verticalAlign=top;spacingLeft=4;spacingRight=4;overflow=hidden;rotatable=0;points=[[0,0.5],[1,0.5]];portConstraint=eastwest;whiteSpace=wrap;html=1;" parent="2AT8lo1jDJxgE_ywK8P_-28" vertex="1">
          <mxGeometry y="38" width="440" height="42" as="geometry" />
        </mxCell>
        <mxCell id="2AT8lo1jDJxgE_ywK8P_-42" style="edgeStyle=orthogonalEdgeStyle;rounded=0;orthogonalLoop=1;jettySize=auto;html=1;entryX=0.25;entryY=1;entryDx=0;entryDy=0;endArrow=block;endFill=0;dashed=1;" parent="1" source="2AT8lo1jDJxgE_ywK8P_-32" target="2AT8lo1jDJxgE_ywK8P_-27" edge="1">
          <mxGeometry relative="1" as="geometry" />
        </mxCell>
        <mxCell id="2AT8lo1jDJxgE_ywK8P_-61" style="edgeStyle=orthogonalEdgeStyle;rounded=0;orthogonalLoop=1;jettySize=auto;html=1;entryX=0.75;entryY=0;entryDx=0;entryDy=0;" parent="1" source="2AT8lo1jDJxgE_ywK8P_-32" target="2AT8lo1jDJxgE_ywK8P_-53" edge="1">
          <mxGeometry relative="1" as="geometry" />
        </mxCell>
        <mxCell id="2AT8lo1jDJxgE_ywK8P_-66" style="edgeStyle=orthogonalEdgeStyle;rounded=0;orthogonalLoop=1;jettySize=auto;html=1;" parent="1" source="2AT8lo1jDJxgE_ywK8P_-32" target="2AT8lo1jDJxgE_ywK8P_-63" edge="1">
          <mxGeometry relative="1" as="geometry" />
        </mxCell>
        <mxCell id="2AT8lo1jDJxgE_ywK8P_-83" style="edgeStyle=orthogonalEdgeStyle;rounded=0;orthogonalLoop=1;jettySize=auto;html=1;" parent="1" source="2AT8lo1jDJxgE_ywK8P_-32" target="2AT8lo1jDJxgE_ywK8P_-79" edge="1">
          <mxGeometry relative="1" as="geometry">
            <Array as="points">
              <mxPoint x="1610" y="2420" />
              <mxPoint x="1610" y="2420" />
            </Array>
          </mxGeometry>
        </mxCell>
        <mxCell id="2AT8lo1jDJxgE_ywK8P_-32" value="&lt;b&gt;Tui&lt;/b&gt;" style="swimlane;fontStyle=1;align=center;verticalAlign=top;childLayout=stackLayout;horizontal=1;startSize=26;horizontalStack=0;resizeParent=1;resizeParentMax=0;resizeLast=0;collapsible=1;marginBottom=0;whiteSpace=wrap;html=1;" parent="1" vertex="1">
          <mxGeometry x="1370" y="1920" width="440" height="100" as="geometry" />
        </mxCell>
        <mxCell id="2AT8lo1jDJxgE_ywK8P_-33" value="&lt;p style=&quot;margin:0 0 0 4px;line-height:1.6;&quot;&gt;&lt;br&gt;&lt;/p&gt;" style="text;strokeColor=none;fillColor=none;align=left;verticalAlign=top;spacingLeft=4;spacingRight=4;overflow=hidden;rotatable=0;points=[[0,0.5],[1,0.5]];portConstraint=eastwest;whiteSpace=wrap;html=1;" parent="2AT8lo1jDJxgE_ywK8P_-32" vertex="1">
          <mxGeometry y="26" width="440" height="24" as="geometry" />
        </mxCell>
        <mxCell id="2AT8lo1jDJxgE_ywK8P_-34" value="" style="line;strokeWidth=1;fillColor=none;align=left;verticalAlign=middle;spacingTop=-1;spacingLeft=3;spacingRight=3;rotatable=0;labelPosition=right;points=[];portConstraint=eastwest;strokeColor=inherit;" parent="2AT8lo1jDJxgE_ywK8P_-32" vertex="1">
          <mxGeometry y="50" width="440" height="8" as="geometry" />
        </mxCell>
        <mxCell id="2AT8lo1jDJxgE_ywK8P_-35" value="&lt;p style=&quot;margin:0 0 0 4px;line-height:1.6;&quot;&gt;Methods to display the various scenes of the TUI&lt;br&gt;&lt;/p&gt;" style="text;strokeColor=none;fillColor=none;align=left;verticalAlign=top;spacingLeft=4;spacingRight=4;overflow=hidden;rotatable=0;points=[[0,0.5],[1,0.5]];portConstraint=eastwest;whiteSpace=wrap;html=1;" parent="2AT8lo1jDJxgE_ywK8P_-32" vertex="1">
          <mxGeometry y="58" width="440" height="42" as="geometry" />
        </mxCell>
        <mxCell id="2AT8lo1jDJxgE_ywK8P_-37" style="edgeStyle=orthogonalEdgeStyle;rounded=0;orthogonalLoop=1;jettySize=auto;html=1;exitX=1;exitY=0.5;exitDx=0;exitDy=0;" parent="1" source="2AT8lo1jDJxgE_ywK8P_-5" target="2AT8lo1jDJxgE_ywK8P_-27" edge="1">
          <mxGeometry relative="1" as="geometry">
            <Array as="points" />
          </mxGeometry>
        </mxCell>
        <mxCell id="2AT8lo1jDJxgE_ywK8P_-38" value="tui" style="shape=umlFrame;whiteSpace=wrap;html=1;pointerEvents=0;fillColor=#dae8fc;strokeColor=#6c8ebf;" parent="1" vertex="1">
          <mxGeometry x="920" y="1840" width="1300" height="830" as="geometry" />
        </mxCell>
        <mxCell id="2AT8lo1jDJxgE_ywK8P_-39" value="gui" style="shape=umlFrame;whiteSpace=wrap;html=1;pointerEvents=0;fillColor=#dae8fc;strokeColor=#6c8ebf;" parent="1" vertex="1">
          <mxGeometry x="2260" y="1840" width="1480" height="1030" as="geometry" />
        </mxCell>
        <mxCell id="2AT8lo1jDJxgE_ywK8P_-44" value="print" style="shape=umlFrame;whiteSpace=wrap;html=1;pointerEvents=0;" parent="1" vertex="1">
          <mxGeometry x="960" y="2100" width="600" height="420" as="geometry" />
        </mxCell>
        <mxCell id="2AT8lo1jDJxgE_ywK8P_-45" value="&lt;b&gt;AsyncHandler&lt;/b&gt;" style="swimlane;fontStyle=1;align=center;verticalAlign=top;childLayout=stackLayout;horizontal=1;startSize=26;horizontalStack=0;resizeParent=1;resizeParentMax=0;resizeLast=0;collapsible=1;marginBottom=0;whiteSpace=wrap;html=1;" parent="1" vertex="1">
          <mxGeometry x="1125" y="2150" width="270" height="100" as="geometry" />
        </mxCell>
        <mxCell id="2AT8lo1jDJxgE_ywK8P_-46" value="&lt;p style=&quot;margin:0 0 0 4px;line-height:1.6;&quot;&gt;&lt;br&gt;&lt;/p&gt;" style="text;strokeColor=none;fillColor=none;align=left;verticalAlign=top;spacingLeft=4;spacingRight=4;overflow=hidden;rotatable=0;points=[[0,0.5],[1,0.5]];portConstraint=eastwest;whiteSpace=wrap;html=1;" parent="2AT8lo1jDJxgE_ywK8P_-45" vertex="1">
          <mxGeometry y="26" width="270" height="24" as="geometry" />
        </mxCell>
        <mxCell id="2AT8lo1jDJxgE_ywK8P_-47" value="" style="line;strokeWidth=1;fillColor=none;align=left;verticalAlign=middle;spacingTop=-1;spacingLeft=3;spacingRight=3;rotatable=0;labelPosition=right;points=[];portConstraint=eastwest;strokeColor=inherit;" parent="2AT8lo1jDJxgE_ywK8P_-45" vertex="1">
          <mxGeometry y="50" width="270" height="8" as="geometry" />
        </mxCell>
        <mxCell id="2AT8lo1jDJxgE_ywK8P_-48" value="Executor for asynchronous printing" style="text;strokeColor=none;fillColor=none;align=left;verticalAlign=top;spacingLeft=4;spacingRight=4;overflow=hidden;rotatable=0;points=[[0,0.5],[1,0.5]];portConstraint=eastwest;whiteSpace=wrap;html=1;" parent="2AT8lo1jDJxgE_ywK8P_-45" vertex="1">
          <mxGeometry y="58" width="270" height="42" as="geometry" />
        </mxCell>
        <mxCell id="2AT8lo1jDJxgE_ywK8P_-49" value="&lt;b&gt;AsyncLogger&lt;/b&gt;" style="swimlane;fontStyle=1;align=center;verticalAlign=top;childLayout=stackLayout;horizontal=1;startSize=26;horizontalStack=0;resizeParent=1;resizeParentMax=0;resizeLast=0;collapsible=1;marginBottom=0;whiteSpace=wrap;html=1;" parent="1" vertex="1">
          <mxGeometry x="970" y="2330" width="270" height="100" as="geometry" />
        </mxCell>
        <mxCell id="2AT8lo1jDJxgE_ywK8P_-50" value="&lt;p style=&quot;margin:0 0 0 4px;line-height:1.6;&quot;&gt;&lt;br&gt;&lt;/p&gt;" style="text;strokeColor=none;fillColor=none;align=left;verticalAlign=top;spacingLeft=4;spacingRight=4;overflow=hidden;rotatable=0;points=[[0,0.5],[1,0.5]];portConstraint=eastwest;whiteSpace=wrap;html=1;" parent="2AT8lo1jDJxgE_ywK8P_-49" vertex="1">
          <mxGeometry y="26" width="270" height="24" as="geometry" />
        </mxCell>
        <mxCell id="2AT8lo1jDJxgE_ywK8P_-51" value="" style="line;strokeWidth=1;fillColor=none;align=left;verticalAlign=middle;spacingTop=-1;spacingLeft=3;spacingRight=3;rotatable=0;labelPosition=right;points=[];portConstraint=eastwest;strokeColor=inherit;" parent="2AT8lo1jDJxgE_ywK8P_-49" vertex="1">
          <mxGeometry y="50" width="270" height="8" as="geometry" />
        </mxCell>
        <mxCell id="2AT8lo1jDJxgE_ywK8P_-52" value="Methods for printing logs" style="text;strokeColor=none;fillColor=none;align=left;verticalAlign=top;spacingLeft=4;spacingRight=4;overflow=hidden;rotatable=0;points=[[0,0.5],[1,0.5]];portConstraint=eastwest;whiteSpace=wrap;html=1;" parent="2AT8lo1jDJxgE_ywK8P_-49" vertex="1">
          <mxGeometry y="58" width="270" height="42" as="geometry" />
        </mxCell>
        <mxCell id="2AT8lo1jDJxgE_ywK8P_-53" value="&lt;b&gt;AsyncPrint&lt;/b&gt;" style="swimlane;fontStyle=1;align=center;verticalAlign=top;childLayout=stackLayout;horizontal=1;startSize=26;horizontalStack=0;resizeParent=1;resizeParentMax=0;resizeLast=0;collapsible=1;marginBottom=0;whiteSpace=wrap;html=1;" parent="1" vertex="1">
          <mxGeometry x="1270" y="2330" width="270" height="100" as="geometry" />
        </mxCell>
        <mxCell id="2AT8lo1jDJxgE_ywK8P_-54" value="&lt;p style=&quot;margin:0 0 0 4px;line-height:1.6;&quot;&gt;&lt;br&gt;&lt;/p&gt;" style="text;strokeColor=none;fillColor=none;align=left;verticalAlign=top;spacingLeft=4;spacingRight=4;overflow=hidden;rotatable=0;points=[[0,0.5],[1,0.5]];portConstraint=eastwest;whiteSpace=wrap;html=1;" parent="2AT8lo1jDJxgE_ywK8P_-53" vertex="1">
          <mxGeometry y="26" width="270" height="24" as="geometry" />
        </mxCell>
        <mxCell id="2AT8lo1jDJxgE_ywK8P_-55" value="" style="line;strokeWidth=1;fillColor=none;align=left;verticalAlign=middle;spacingTop=-1;spacingLeft=3;spacingRight=3;rotatable=0;labelPosition=right;points=[];portConstraint=eastwest;strokeColor=inherit;" parent="2AT8lo1jDJxgE_ywK8P_-53" vertex="1">
          <mxGeometry y="50" width="270" height="8" as="geometry" />
        </mxCell>
        <mxCell id="2AT8lo1jDJxgE_ywK8P_-56" value="Methods for printing strings using StringBuilder or String" style="text;strokeColor=none;fillColor=none;align=left;verticalAlign=top;spacingLeft=4;spacingRight=4;overflow=hidden;rotatable=0;points=[[0,0.5],[1,0.5]];portConstraint=eastwest;whiteSpace=wrap;html=1;" parent="2AT8lo1jDJxgE_ywK8P_-53" vertex="1">
          <mxGeometry y="58" width="270" height="42" as="geometry" />
        </mxCell>
        <mxCell id="2AT8lo1jDJxgE_ywK8P_-58" style="edgeStyle=orthogonalEdgeStyle;rounded=0;orthogonalLoop=1;jettySize=auto;html=1;entryX=0.226;entryY=1.018;entryDx=0;entryDy=0;entryPerimeter=0;" parent="1" source="2AT8lo1jDJxgE_ywK8P_-49" target="2AT8lo1jDJxgE_ywK8P_-48" edge="1">
          <mxGeometry relative="1" as="geometry" />
        </mxCell>
        <mxCell id="2AT8lo1jDJxgE_ywK8P_-59" style="edgeStyle=orthogonalEdgeStyle;rounded=0;orthogonalLoop=1;jettySize=auto;html=1;entryX=0.7;entryY=0.975;entryDx=0;entryDy=0;entryPerimeter=0;" parent="1" source="2AT8lo1jDJxgE_ywK8P_-53" target="2AT8lo1jDJxgE_ywK8P_-48" edge="1">
          <mxGeometry relative="1" as="geometry" />
        </mxCell>
        <mxCell id="2AT8lo1jDJxgE_ywK8P_-63" value="&lt;p style=&quot;margin:0px;margin-top:4px;text-align:center;&quot;&gt;&lt;i&gt;&amp;lt;&amp;lt;enumeration&amp;gt;&amp;gt;&lt;/i&gt;&lt;br/&gt;&lt;b&gt;CharColor&lt;/b&gt;&lt;/p&gt;&lt;hr size=&quot;1&quot;/&gt;&lt;p style=&quot;margin:0 0 0 4px;line-height:1.6;&quot;&gt;+ MAGENTA: &lt;br/&gt;+ GREEN: &lt;br/&gt;+ BLUE: &lt;br/&gt;+ BLACK: &lt;br/&gt;+ GOLD: &lt;br/&gt;+ WHITE: &lt;br/&gt;+ RED: &lt;/p&gt;" style="verticalAlign=top;align=left;overflow=fill;fontSize=14;fontFamily=Helvetica;html=1;rounded=0;shadow=0;comic=0;labelBackgroundColor=none;strokeWidth=1;" parent="1" vertex="1">
          <mxGeometry x="1079" y="1860" width="161" height="220" as="geometry" />
        </mxCell>
        <mxCell id="2AT8lo1jDJxgE_ywK8P_-84" style="edgeStyle=orthogonalEdgeStyle;rounded=0;orthogonalLoop=1;jettySize=auto;html=1;entryX=0.75;entryY=0;entryDx=0;entryDy=0;" parent="1" source="2AT8lo1jDJxgE_ywK8P_-71" target="2AT8lo1jDJxgE_ywK8P_-79" edge="1">
          <mxGeometry relative="1" as="geometry" />
        </mxCell>
        <mxCell id="2AT8lo1jDJxgE_ywK8P_-71" value="&lt;b&gt;SideView&lt;/b&gt;" style="swimlane;fontStyle=1;align=center;verticalAlign=top;childLayout=stackLayout;horizontal=1;startSize=26;horizontalStack=0;resizeParent=1;resizeParentMax=0;resizeLast=0;collapsible=1;marginBottom=0;whiteSpace=wrap;html=1;" parent="1" vertex="1">
          <mxGeometry x="1640" y="2180" width="440" height="306" as="geometry" />
        </mxCell>
        <mxCell id="2AT8lo1jDJxgE_ywK8P_-73" value="" style="line;strokeWidth=1;fillColor=none;align=left;verticalAlign=middle;spacingTop=-1;spacingLeft=3;spacingRight=3;rotatable=0;labelPosition=right;points=[];portConstraint=eastwest;strokeColor=inherit;" parent="2AT8lo1jDJxgE_ywK8P_-71" vertex="1">
          <mxGeometry y="26" width="440" height="8" as="geometry" />
        </mxCell>
        <mxCell id="2AT8lo1jDJxgE_ywK8P_-74" value="&lt;p style=&quot;margin:0 0 0 4px;line-height:1.6;&quot;&gt;+ putTopRightValue(Side): void&lt;br&gt;- getCharFromKingdom(Kingdom): char&lt;br&gt;- getColorFromSide(Side): CharColor&lt;br&gt;- putCentralBoxes(Side): void&lt;br&gt;+ getSideView(Side): CharSpecial[][]&lt;br&gt;+ putTopLeftValue(Side): void&lt;br&gt;+ putBottomLeftValue(Side): void&lt;br&gt;- getCharFromValue(Value): char&lt;br&gt;- getColorFromKingdom(Kingdom): CharColor&lt;br&gt;+ putBottomRightValue(Side): void&lt;br&gt;- putCornersOnFrame(Side): void&lt;br&gt;- generateAndPutBox(CharColor, int, int, int, int, char, char, char, char): void&lt;br&gt;&lt;/p&gt;" style="text;strokeColor=none;fillColor=none;align=left;verticalAlign=top;spacingLeft=4;spacingRight=4;overflow=hidden;rotatable=0;points=[[0,0.5],[1,0.5]];portConstraint=eastwest;whiteSpace=wrap;html=1;" parent="2AT8lo1jDJxgE_ywK8P_-71" vertex="1">
          <mxGeometry y="34" width="440" height="272" as="geometry" />
        </mxCell>
        <mxCell id="2AT8lo1jDJxgE_ywK8P_-75" style="edgeStyle=orthogonalEdgeStyle;rounded=0;orthogonalLoop=1;jettySize=auto;html=1;entryX=0.25;entryY=0;entryDx=0;entryDy=0;exitX=0.647;exitY=0.999;exitDx=0;exitDy=0;exitPerimeter=0;" parent="1" source="2AT8lo1jDJxgE_ywK8P_-35" target="2AT8lo1jDJxgE_ywK8P_-71" edge="1">
          <mxGeometry relative="1" as="geometry" />
        </mxCell>
        <mxCell id="2AT8lo1jDJxgE_ywK8P_-85" style="edgeStyle=orthogonalEdgeStyle;rounded=0;orthogonalLoop=1;jettySize=auto;html=1;" parent="1" source="2AT8lo1jDJxgE_ywK8P_-79" target="2AT8lo1jDJxgE_ywK8P_-63" edge="1">
          <mxGeometry relative="1" as="geometry">
            <Array as="points">
              <mxPoint x="940" y="2604" />
              <mxPoint x="940" y="1970" />
            </Array>
          </mxGeometry>
        </mxCell>
        <mxCell id="2AT8lo1jDJxgE_ywK8P_-79" value="&lt;b&gt;CharSpecial&lt;/b&gt;" style="swimlane;fontStyle=1;align=center;verticalAlign=top;childLayout=stackLayout;horizontal=1;startSize=26;horizontalStack=0;resizeParent=1;resizeParentMax=0;resizeLast=0;collapsible=1;marginBottom=0;whiteSpace=wrap;html=1;" parent="1" vertex="1">
          <mxGeometry x="1550" y="2560" width="130" height="88" as="geometry" />
        </mxCell>
        <mxCell id="2AT8lo1jDJxgE_ywK8P_-80" value="&lt;p style=&quot;margin:0 0 0 4px;line-height:1.6;&quot;&gt;&lt;span style=&quot;background-color: initial;&quot;&gt;+ color: CharColor&lt;/span&gt;&lt;/p&gt;&lt;p style=&quot;margin:0 0 0 4px;line-height:1.6;&quot;&gt;&lt;span style=&quot;background-color: initial;&quot;&gt;+ c: char&lt;/span&gt;&lt;br&gt;&lt;/p&gt;" style="text;strokeColor=none;fillColor=none;align=left;verticalAlign=top;spacingLeft=4;spacingRight=4;overflow=hidden;rotatable=0;points=[[0,0.5],[1,0.5]];portConstraint=eastwest;whiteSpace=wrap;html=1;" parent="2AT8lo1jDJxgE_ywK8P_-79" vertex="1">
          <mxGeometry y="26" width="130" height="54" as="geometry" />
        </mxCell>
        <mxCell id="2AT8lo1jDJxgE_ywK8P_-81" value="" style="line;strokeWidth=1;fillColor=none;align=left;verticalAlign=middle;spacingTop=-1;spacingLeft=3;spacingRight=3;rotatable=0;labelPosition=right;points=[];portConstraint=eastwest;strokeColor=inherit;" parent="2AT8lo1jDJxgE_ywK8P_-79" vertex="1">
          <mxGeometry y="80" width="130" height="8" as="geometry" />
        </mxCell>
        <mxCell id="2AT8lo1jDJxgE_ywK8P_-86" value="&lt;b&gt;Coords&lt;/b&gt;" style="swimlane;fontStyle=1;align=center;verticalAlign=top;childLayout=stackLayout;horizontal=1;startSize=26;horizontalStack=0;resizeParent=1;resizeParentMax=0;resizeLast=0;collapsible=1;marginBottom=0;whiteSpace=wrap;html=1;" parent="1" vertex="1">
          <mxGeometry x="1820" y="2080" width="130" height="88" as="geometry" />
        </mxCell>
        <mxCell id="2AT8lo1jDJxgE_ywK8P_-87" value="&lt;p style=&quot;margin:0 0 0 4px;line-height:1.6;&quot;&gt;+ x: int&lt;/p&gt;&lt;p style=&quot;margin:0 0 0 4px;line-height:1.6;&quot;&gt;+ y: int&lt;/p&gt;" style="text;strokeColor=none;fillColor=none;align=left;verticalAlign=top;spacingLeft=4;spacingRight=4;overflow=hidden;rotatable=0;points=[[0,0.5],[1,0.5]];portConstraint=eastwest;whiteSpace=wrap;html=1;" parent="2AT8lo1jDJxgE_ywK8P_-86" vertex="1">
          <mxGeometry y="26" width="130" height="54" as="geometry" />
        </mxCell>
        <mxCell id="2AT8lo1jDJxgE_ywK8P_-88" value="" style="line;strokeWidth=1;fillColor=none;align=left;verticalAlign=middle;spacingTop=-1;spacingLeft=3;spacingRight=3;rotatable=0;labelPosition=right;points=[];portConstraint=eastwest;strokeColor=inherit;" parent="2AT8lo1jDJxgE_ywK8P_-86" vertex="1">
          <mxGeometry y="80" width="130" height="8" as="geometry" />
        </mxCell>
        <mxCell id="2AT8lo1jDJxgE_ywK8P_-89" style="edgeStyle=orthogonalEdgeStyle;rounded=0;orthogonalLoop=1;jettySize=auto;html=1;exitX=1;exitY=0.5;exitDx=0;exitDy=0;" parent="1" source="2AT8lo1jDJxgE_ywK8P_-35" target="2AT8lo1jDJxgE_ywK8P_-86" edge="1">
          <mxGeometry relative="1" as="geometry" />
        </mxCell>
        <mxCell id="2AT8lo1jDJxgE_ywK8P_-103" style="edgeStyle=orthogonalEdgeStyle;rounded=0;orthogonalLoop=1;jettySize=auto;html=1;" parent="1" source="2AT8lo1jDJxgE_ywK8P_-94" target="2AT8lo1jDJxgE_ywK8P_-99" edge="1">
          <mxGeometry relative="1" as="geometry" />
        </mxCell>
        <mxCell id="2AT8lo1jDJxgE_ywK8P_-94" value="&lt;b&gt;ApplicationGui&lt;/b&gt;" style="swimlane;fontStyle=1;align=center;verticalAlign=top;childLayout=stackLayout;horizontal=1;startSize=26;horizontalStack=0;resizeParent=1;resizeParentMax=0;resizeLast=0;collapsible=1;marginBottom=0;whiteSpace=wrap;html=1;" parent="1" vertex="1">
          <mxGeometry x="2330" y="2020" width="440" height="750" as="geometry" />
        </mxCell>
        <mxCell id="2AT8lo1jDJxgE_ywK8P_-95" value="&lt;p style=&quot;margin:0 0 0 4px;line-height:1.6;&quot;&gt;- popUpStage: Stage&lt;br&gt;- resizing: boolean&lt;br&gt;- widthOld: double&lt;br&gt;- heightOld: double&lt;br&gt;- stage: Stage&lt;br&gt;- root: StackPane&lt;br&gt;- scenes: ArrayList&amp;lt;Scenes&amp;gt;&lt;br&gt;- port: int&lt;br&gt;- flow: Flow&lt;br&gt;- connectionType: String&lt;br&gt;- ipAddress: String&lt;br&gt;- nickname: String&lt;br&gt;&lt;/p&gt;" style="text;strokeColor=none;fillColor=none;align=left;verticalAlign=top;spacingLeft=4;spacingRight=4;overflow=hidden;rotatable=0;points=[[0,0.5],[1,0.5]];portConstraint=eastwest;whiteSpace=wrap;html=1;" parent="2AT8lo1jDJxgE_ywK8P_-94" vertex="1">
          <mxGeometry y="26" width="440" height="244" as="geometry" />
        </mxCell>
        <mxCell id="2AT8lo1jDJxgE_ywK8P_-96" value="" style="line;strokeWidth=1;fillColor=none;align=left;verticalAlign=middle;spacingTop=-1;spacingLeft=3;spacingRight=3;rotatable=0;labelPosition=right;points=[];portConstraint=eastwest;strokeColor=inherit;" parent="2AT8lo1jDJxgE_ywK8P_-94" vertex="1">
          <mxGeometry y="270" width="440" height="8" as="geometry" />
        </mxCell>
        <mxCell id="2AT8lo1jDJxgE_ywK8P_-97" value="&lt;p style=&quot;margin:0 0 0 4px;line-height:1.6;&quot;&gt;+ showTurnUsername(GameImmutable): void&lt;br&gt;+ setActionIsPlace(): void&lt;br&gt;+ showGameRunning(GameImmutable, String): void&lt;br&gt;+ showWinner(GameImmutable): void&lt;br&gt;+ showFatalError(String): void&lt;br&gt;+ getController(SceneEnum): GenericController&lt;br&gt;+ start(Stage): void&lt;br&gt;+ main(String[]): void&lt;br&gt;+ setActionIsDraw(): void&lt;br&gt;+ showError(String): void&lt;br&gt;+ show_askSideStarter(GameImmutable, String): void&lt;br&gt;+ showLatestEvent(String, GameImmutable): void&lt;br&gt;+ showObjectiveNotChosen(GameImmutable): void&lt;br&gt;+ showChat(ChatMessage, GameImmutable): void&lt;br&gt;+ createNewWindow(): void&lt;br&gt;+ setupGUIInputController(InputReaderGUI): void&lt;br&gt;+ setActiveScene(SceneEnum): void&lt;br&gt;+ rescale(double, double): void&lt;br&gt;- getScene(): void&lt;br&gt;+ openPopUps(SceneEnum): void&lt;br&gt;+ closePopUps(): void&lt;br&gt;- showPlayerInLobby(String, GameImmutable): void&lt;br&gt;+ showLobby(GameImmutable): void&lt;br&gt;+ setNickname(String): void&lt;br&gt;&lt;/p&gt;" style="text;strokeColor=none;fillColor=none;align=left;verticalAlign=top;spacingLeft=4;spacingRight=4;overflow=hidden;rotatable=0;points=[[0,0.5],[1,0.5]];portConstraint=eastwest;whiteSpace=wrap;html=1;" parent="2AT8lo1jDJxgE_ywK8P_-94" vertex="1">
          <mxGeometry y="278" width="440" height="472" as="geometry" />
        </mxCell>
        <mxCell id="2AT8lo1jDJxgE_ywK8P_-105" style="edgeStyle=orthogonalEdgeStyle;rounded=0;orthogonalLoop=1;jettySize=auto;html=1;" parent="1" source="2AT8lo1jDJxgE_ywK8P_-99" target="2AT8lo1jDJxgE_ywK8P_-104" edge="1">
          <mxGeometry relative="1" as="geometry" />
        </mxCell>
        <mxCell id="2AT8lo1jDJxgE_ywK8P_-99" value="&lt;b&gt;Scene&lt;/b&gt;" style="swimlane;fontStyle=1;align=center;verticalAlign=top;childLayout=stackLayout;horizontal=1;startSize=26;horizontalStack=0;resizeParent=1;resizeParentMax=0;resizeLast=0;collapsible=1;marginBottom=0;whiteSpace=wrap;html=1;" parent="1" vertex="1">
          <mxGeometry x="2830" y="2520" width="440" height="250" as="geometry" />
        </mxCell>
        <mxCell id="2AT8lo1jDJxgE_ywK8P_-100" value="&lt;p style=&quot;margin:0 0 0 4px;line-height:1.6;&quot;&gt;- genericController: GenericController&lt;br&gt;- scene: Scene&lt;br&gt;- sceneEnum: SceneEnum&lt;br&gt;&lt;/p&gt;" style="text;strokeColor=none;fillColor=none;align=left;verticalAlign=top;spacingLeft=4;spacingRight=4;overflow=hidden;rotatable=0;points=[[0,0.5],[1,0.5]];portConstraint=eastwest;whiteSpace=wrap;html=1;" parent="2AT8lo1jDJxgE_ywK8P_-99" vertex="1">
          <mxGeometry y="26" width="440" height="64" as="geometry" />
        </mxCell>
        <mxCell id="2AT8lo1jDJxgE_ywK8P_-101" value="" style="line;strokeWidth=1;fillColor=none;align=left;verticalAlign=middle;spacingTop=-1;spacingLeft=3;spacingRight=3;rotatable=0;labelPosition=right;points=[];portConstraint=eastwest;strokeColor=inherit;" parent="2AT8lo1jDJxgE_ywK8P_-99" vertex="1">
          <mxGeometry y="90" width="440" height="8" as="geometry" />
        </mxCell>
        <mxCell id="2AT8lo1jDJxgE_ywK8P_-102" value="&lt;p style=&quot;margin:0 0 0 4px;line-height:1.6;&quot;&gt;+ setSceneEnum(SceneEnum): void&lt;br&gt;+ setGenericController(GenericController): void&lt;br&gt;+ getGenericController(): GenericController&lt;br&gt;+ getScene(): Scene&lt;br&gt;+ getSceneEnum(): SceneEnum&lt;br&gt;+ setScene(Scene): void&lt;br&gt;+ setInputReaderGUI(InputReaderGUI): void&lt;br&gt;&lt;/p&gt;" style="text;strokeColor=none;fillColor=none;align=left;verticalAlign=top;spacingLeft=4;spacingRight=4;overflow=hidden;rotatable=0;points=[[0,0.5],[1,0.5]];portConstraint=eastwest;whiteSpace=wrap;html=1;" parent="2AT8lo1jDJxgE_ywK8P_-99" vertex="1">
          <mxGeometry y="98" width="440" height="152" as="geometry" />
        </mxCell>
        <mxCell id="2AT8lo1jDJxgE_ywK8P_-104" value="&lt;p style=&quot;margin:0px;margin-top:4px;text-align:center;&quot;&gt;&lt;i&gt;&amp;lt;&amp;lt;enumeration&amp;gt;&amp;gt;&lt;/i&gt;&lt;br&gt;&lt;b&gt;SceneEnum&lt;/b&gt;&lt;/p&gt;&lt;hr size=&quot;1&quot;&gt;&lt;p style=&quot;margin:0 0 0 4px;line-height:1.6;&quot;&gt;+ LOBBY3: &lt;br&gt;+ LOBBY2: &lt;br&gt;+ GAME_ID: &lt;br&gt;+ ERROR: &lt;br&gt;+ MENU: &lt;br&gt;+ LOBBY_PLAYER1: &lt;br&gt;+ WINNERS: &lt;br&gt;+ LOBBY4: &lt;br&gt;+ GAME_TITLE: &lt;br&gt;+ NICKNAME: &lt;br&gt;+ LOBBY_PLAYER3: &lt;br&gt;+ CHOOSE_SIZE: &lt;br&gt;+ CARD_OBJECTIVE: &lt;br&gt;+ LOBBY_PLAYER2: &lt;br&gt;- value: String&lt;br&gt;+ LOBBY_PLAYER4: &lt;br&gt;+ GAME_RUNNING: &lt;br&gt;+ CARD_STARTER: &lt;/p&gt;&lt;p style=&quot;margin:0 0 0 4px;line-height:1.6;&quot;&gt;&lt;br&gt;&lt;/p&gt;" style="verticalAlign=top;align=left;overflow=fill;fontSize=14;fontFamily=Helvetica;html=1;rounded=0;shadow=0;comic=0;labelBackgroundColor=none;strokeWidth=1;" parent="1" vertex="1">
          <mxGeometry x="3370" y="2380" width="274" height="470" as="geometry" />
        </mxCell>
        <mxCell id="2AT8lo1jDJxgE_ywK8P_-106" value="" style="rounded=0;whiteSpace=wrap;html=1;fillColor=#e1d5e7;strokeColor=#9673a6;opacity=30;" parent="1" vertex="1">
          <mxGeometry x="2920" y="1910" width="790" height="430" as="geometry" />
        </mxCell>
        <mxCell id="2AT8lo1jDJxgE_ywK8P_-107" value="controllers" style="shape=umlFrame;whiteSpace=wrap;html=1;pointerEvents=0;fillColor=#e1d5e7;strokeColor=#9673a6;width=90;height=40;" parent="1" vertex="1">
          <mxGeometry x="2920" y="1910" width="790" height="430" as="geometry" />
        </mxCell>
        <mxCell id="EmU4-_pyQFWMv1p7akHa-1" style="edgeStyle=orthogonalEdgeStyle;rounded=0;orthogonalLoop=1;jettySize=auto;html=1;entryX=1;entryY=0.5;entryDx=0;entryDy=0;" edge="1" parent="1" source="2AT8lo1jDJxgE_ywK8P_-108" target="2AT8lo1jDJxgE_ywK8P_-152">
          <mxGeometry relative="1" as="geometry" />
        </mxCell>
        <mxCell id="2AT8lo1jDJxgE_ywK8P_-108" value="&lt;b&gt;GenericController&lt;/b&gt;" style="swimlane;fontStyle=1;align=center;verticalAlign=top;childLayout=stackLayout;horizontal=1;startSize=26;horizontalStack=0;resizeParent=1;resizeParentMax=0;resizeLast=0;collapsible=1;marginBottom=0;whiteSpace=wrap;html=1;" parent="1" vertex="1">
          <mxGeometry x="3095" y="1940" width="440" height="120" as="geometry" />
        </mxCell>
        <mxCell id="2AT8lo1jDJxgE_ywK8P_-109" value="&lt;p style=&quot;margin:0 0 0 4px;line-height:1.6;&quot;&gt;- inputReaderGUI: InputReaderGUI&lt;/p&gt;" style="text;strokeColor=none;fillColor=none;align=left;verticalAlign=top;spacingLeft=4;spacingRight=4;overflow=hidden;rotatable=0;points=[[0,0.5],[1,0.5]];portConstraint=eastwest;whiteSpace=wrap;html=1;" parent="2AT8lo1jDJxgE_ywK8P_-108" vertex="1">
          <mxGeometry y="26" width="440" height="34" as="geometry" />
        </mxCell>
        <mxCell id="2AT8lo1jDJxgE_ywK8P_-110" value="" style="line;strokeWidth=1;fillColor=none;align=left;verticalAlign=middle;spacingTop=-1;spacingLeft=3;spacingRight=3;rotatable=0;labelPosition=right;points=[];portConstraint=eastwest;strokeColor=inherit;" parent="2AT8lo1jDJxgE_ywK8P_-108" vertex="1">
          <mxGeometry y="60" width="440" height="8" as="geometry" />
        </mxCell>
        <mxCell id="2AT8lo1jDJxgE_ywK8P_-111" value="&lt;p style=&quot;margin:0 0 0 4px;line-height:1.6;&quot;&gt;+ setInputReaderGUI(InputReaderGUI): void&lt;br&gt;+ getInputReaderGUI(): InputReaderGUI&lt;/p&gt;" style="text;strokeColor=none;fillColor=none;align=left;verticalAlign=top;spacingLeft=4;spacingRight=4;overflow=hidden;rotatable=0;points=[[0,0.5],[1,0.5]];portConstraint=eastwest;whiteSpace=wrap;html=1;" parent="2AT8lo1jDJxgE_ywK8P_-108" vertex="1">
          <mxGeometry y="68" width="440" height="52" as="geometry" />
        </mxCell>
        <mxCell id="2AT8lo1jDJxgE_ywK8P_-120" style="edgeStyle=orthogonalEdgeStyle;rounded=0;orthogonalLoop=1;jettySize=auto;html=1;entryX=0.246;entryY=1.019;entryDx=0;entryDy=0;entryPerimeter=0;endArrow=blockThin;endFill=0;dashed=1;" parent="1" source="2AT8lo1jDJxgE_ywK8P_-123" target="2AT8lo1jDJxgE_ywK8P_-111" edge="1">
          <mxGeometry relative="1" as="geometry">
            <mxPoint x="3059.9473684210534" y="2140" as="sourcePoint" />
          </mxGeometry>
        </mxCell>
        <mxCell id="2AT8lo1jDJxgE_ywK8P_-116" value="WinnersController" style="swimlane;fontStyle=1;align=center;verticalAlign=top;childLayout=stackLayout;horizontal=1;startSize=26;horizontalStack=0;resizeParent=1;resizeParentMax=0;resizeLast=0;collapsible=1;marginBottom=0;whiteSpace=wrap;html=1;" parent="1" vertex="1">
          <mxGeometry x="3370" y="2130" width="260" height="60" as="geometry" />
        </mxCell>
        <mxCell id="2AT8lo1jDJxgE_ywK8P_-117" value="&lt;p style=&quot;margin:0 0 0 4px;line-height:1.6;&quot;&gt;&lt;br&gt;&lt;/p&gt;" style="text;strokeColor=none;fillColor=none;align=left;verticalAlign=top;spacingLeft=4;spacingRight=4;overflow=hidden;rotatable=0;points=[[0,0.5],[1,0.5]];portConstraint=eastwest;whiteSpace=wrap;html=1;" parent="2AT8lo1jDJxgE_ywK8P_-116" vertex="1">
          <mxGeometry y="26" width="260" height="4" as="geometry" />
        </mxCell>
        <mxCell id="2AT8lo1jDJxgE_ywK8P_-122" value="Metodi e attributi specifici per i controller" style="text;html=1;align=center;verticalAlign=middle;resizable=0;points=[];autosize=1;strokeColor=none;fillColor=none;" parent="2AT8lo1jDJxgE_ywK8P_-116" vertex="1">
          <mxGeometry y="30" width="260" height="30" as="geometry" />
        </mxCell>
        <mxCell id="2AT8lo1jDJxgE_ywK8P_-121" style="edgeStyle=orthogonalEdgeStyle;rounded=0;orthogonalLoop=1;jettySize=auto;html=1;entryX=0.753;entryY=1.019;entryDx=0;entryDy=0;entryPerimeter=0;endArrow=blockThin;endFill=0;dashed=1;" parent="1" source="2AT8lo1jDJxgE_ywK8P_-116" target="2AT8lo1jDJxgE_ywK8P_-111" edge="1">
          <mxGeometry relative="1" as="geometry" />
        </mxCell>
        <mxCell id="2AT8lo1jDJxgE_ywK8P_-123" value="CardObjectiveController" style="swimlane;fontStyle=1;align=center;verticalAlign=top;childLayout=stackLayout;horizontal=1;startSize=26;horizontalStack=0;resizeParent=1;resizeParentMax=0;resizeLast=0;collapsible=1;marginBottom=0;whiteSpace=wrap;html=1;" parent="1" vertex="1">
          <mxGeometry x="2970" y="2140" width="260" height="60" as="geometry" />
        </mxCell>
        <mxCell id="2AT8lo1jDJxgE_ywK8P_-124" value="&lt;p style=&quot;margin:0 0 0 4px;line-height:1.6;&quot;&gt;&lt;br&gt;&lt;/p&gt;" style="text;strokeColor=none;fillColor=none;align=left;verticalAlign=top;spacingLeft=4;spacingRight=4;overflow=hidden;rotatable=0;points=[[0,0.5],[1,0.5]];portConstraint=eastwest;whiteSpace=wrap;html=1;" parent="2AT8lo1jDJxgE_ywK8P_-123" vertex="1">
          <mxGeometry y="26" width="260" height="4" as="geometry" />
        </mxCell>
        <mxCell id="2AT8lo1jDJxgE_ywK8P_-125" value="Metodi e attributi specifici per i controller" style="text;html=1;align=center;verticalAlign=middle;resizable=0;points=[];autosize=1;strokeColor=none;fillColor=none;" parent="2AT8lo1jDJxgE_ywK8P_-123" vertex="1">
          <mxGeometry y="30" width="260" height="30" as="geometry" />
        </mxCell>
        <mxCell id="2AT8lo1jDJxgE_ywK8P_-127" value="" style="endArrow=none;dashed=1;html=1;dashPattern=1 3;strokeWidth=2;rounded=0;entryX=0.494;entryY=0.814;entryDx=0;entryDy=0;entryPerimeter=0;" parent="1" edge="1">
          <mxGeometry width="50" height="50" relative="1" as="geometry">
            <mxPoint x="3270" y="2169.47" as="sourcePoint" />
            <mxPoint x="3340.26" y="2169.4899999999993" as="targetPoint" />
          </mxGeometry>
        </mxCell>
        <mxCell id="2AT8lo1jDJxgE_ywK8P_-128" value="inputHandler" style="shape=umlFrame;whiteSpace=wrap;html=1;pointerEvents=0;fillColor=#b1ddf0;strokeColor=#10739e;width=110;height=40;" parent="1" vertex="1">
          <mxGeometry x="2350" y="950" width="1480" height="780" as="geometry" />
        </mxCell>
        <mxCell id="2AT8lo1jDJxgE_ywK8P_-153" style="edgeStyle=orthogonalEdgeStyle;rounded=0;orthogonalLoop=1;jettySize=auto;html=1;" parent="1" source="2AT8lo1jDJxgE_ywK8P_-133" target="2AT8lo1jDJxgE_ywK8P_-138" edge="1">
          <mxGeometry relative="1" as="geometry" />
        </mxCell>
        <mxCell id="2AT8lo1jDJxgE_ywK8P_-133" value="&lt;b&gt;InputProcesor&lt;/b&gt;" style="swimlane;fontStyle=1;align=center;verticalAlign=top;childLayout=stackLayout;horizontal=1;startSize=26;horizontalStack=0;resizeParent=1;resizeParentMax=0;resizeLast=0;collapsible=1;marginBottom=0;whiteSpace=wrap;html=1;" parent="1" vertex="1">
          <mxGeometry x="2935" y="990" width="310" height="120" as="geometry" />
        </mxCell>
        <mxCell id="2AT8lo1jDJxgE_ywK8P_-134" value="&lt;p style=&quot;margin:0 0 0 4px;line-height:1.6;&quot;&gt;- nickname: String&lt;br&gt;- dataToProcess: InputQueue&lt;/p&gt;" style="text;strokeColor=none;fillColor=none;align=left;verticalAlign=top;spacingLeft=4;spacingRight=4;overflow=hidden;rotatable=0;points=[[0,0.5],[1,0.5]];portConstraint=eastwest;whiteSpace=wrap;html=1;" parent="2AT8lo1jDJxgE_ywK8P_-133" vertex="1">
          <mxGeometry y="26" width="310" height="54" as="geometry" />
        </mxCell>
        <mxCell id="2AT8lo1jDJxgE_ywK8P_-135" value="" style="line;strokeWidth=1;fillColor=none;align=left;verticalAlign=middle;spacingTop=-1;spacingLeft=3;spacingRight=3;rotatable=0;labelPosition=right;points=[];portConstraint=eastwest;strokeColor=inherit;" parent="2AT8lo1jDJxgE_ywK8P_-133" vertex="1">
          <mxGeometry y="80" width="310" height="8" as="geometry" />
        </mxCell>
        <mxCell id="2AT8lo1jDJxgE_ywK8P_-136" value="&lt;p style=&quot;margin:0 0 0 4px;line-height:1.6;&quot;&gt;+ run(): void&lt;/p&gt;" style="text;strokeColor=none;fillColor=none;align=left;verticalAlign=top;spacingLeft=4;spacingRight=4;overflow=hidden;rotatable=0;points=[[0,0.5],[1,0.5]];portConstraint=eastwest;whiteSpace=wrap;html=1;" parent="2AT8lo1jDJxgE_ywK8P_-133" vertex="1">
          <mxGeometry y="88" width="310" height="32" as="geometry" />
        </mxCell>
        <mxCell id="2AT8lo1jDJxgE_ywK8P_-138" value="&lt;b&gt;InputQueue&lt;/b&gt;" style="swimlane;fontStyle=1;align=center;verticalAlign=top;childLayout=stackLayout;horizontal=1;startSize=26;horizontalStack=0;resizeParent=1;resizeParentMax=0;resizeLast=0;collapsible=1;marginBottom=0;whiteSpace=wrap;html=1;" parent="1" vertex="1">
          <mxGeometry x="2960" y="1260" width="205" height="140" as="geometry" />
        </mxCell>
        <mxCell id="2AT8lo1jDJxgE_ywK8P_-139" value="&lt;p style=&quot;margin:0 0 0 4px;line-height:1.6;&quot;&gt;&lt;br&gt;&lt;/p&gt;" style="text;strokeColor=none;fillColor=none;align=left;verticalAlign=top;spacingLeft=4;spacingRight=4;overflow=hidden;rotatable=0;points=[[0,0.5],[1,0.5]];portConstraint=eastwest;whiteSpace=wrap;html=1;" parent="2AT8lo1jDJxgE_ywK8P_-138" vertex="1">
          <mxGeometry y="26" width="205" height="24" as="geometry" />
        </mxCell>
        <mxCell id="2AT8lo1jDJxgE_ywK8P_-140" value="" style="line;strokeWidth=1;fillColor=none;align=left;verticalAlign=middle;spacingTop=-1;spacingLeft=3;spacingRight=3;rotatable=0;labelPosition=right;points=[];portConstraint=eastwest;strokeColor=inherit;" parent="2AT8lo1jDJxgE_ywK8P_-138" vertex="1">
          <mxGeometry y="50" width="205" height="8" as="geometry" />
        </mxCell>
        <mxCell id="2AT8lo1jDJxgE_ywK8P_-141" value="&lt;p style=&quot;margin:0 0 0 4px;line-height:1.6;&quot;&gt;+ popData(): String&lt;br&gt;+ popAllData(): void&lt;br&gt;+ addData(String): void&lt;br&gt;&lt;/p&gt;" style="text;strokeColor=none;fillColor=none;align=left;verticalAlign=top;spacingLeft=4;spacingRight=4;overflow=hidden;rotatable=0;points=[[0,0.5],[1,0.5]];portConstraint=eastwest;whiteSpace=wrap;html=1;" parent="2AT8lo1jDJxgE_ywK8P_-138" vertex="1">
          <mxGeometry y="58" width="205" height="82" as="geometry" />
        </mxCell>
        <mxCell id="2AT8lo1jDJxgE_ywK8P_-156" value="" style="group" parent="1" vertex="1" connectable="0">
          <mxGeometry x="2872.5" y="1450" width="435" height="245" as="geometry" />
        </mxCell>
        <mxCell id="2AT8lo1jDJxgE_ywK8P_-142" value="&lt;p style=&quot;margin:0px;margin-top:4px;text-align:center;&quot;&gt;&lt;i&gt;&amp;lt;&amp;lt;Interface&amp;gt;&amp;gt;&lt;/i&gt;&lt;br&gt;&lt;b&gt;InputReader&lt;/b&gt;&lt;/p&gt;&lt;hr size=&quot;1&quot; style=&quot;border-style:solid;&quot;&gt;&lt;p style=&quot;margin:0 0 0 4px;line-height:1.6;&quot;&gt;&amp;nbsp;queue: InputQueue&lt;/p&gt;" style="verticalAlign=top;align=left;overflow=fill;html=1;whiteSpace=wrap;" parent="2AT8lo1jDJxgE_ywK8P_-156" vertex="1">
          <mxGeometry x="120" width="168" height="80" as="geometry" />
        </mxCell>
        <mxCell id="2AT8lo1jDJxgE_ywK8P_-154" style="edgeStyle=orthogonalEdgeStyle;rounded=0;orthogonalLoop=1;jettySize=auto;html=1;entryX=0.25;entryY=1;entryDx=0;entryDy=0;dashed=1;endArrow=block;endFill=0;" parent="2AT8lo1jDJxgE_ywK8P_-156" source="2AT8lo1jDJxgE_ywK8P_-143" target="2AT8lo1jDJxgE_ywK8P_-142" edge="1">
          <mxGeometry relative="1" as="geometry" />
        </mxCell>
        <mxCell id="2AT8lo1jDJxgE_ywK8P_-143" value="&lt;b&gt;InputReaderTUI&lt;/b&gt;" style="swimlane;fontStyle=1;align=center;verticalAlign=top;childLayout=stackLayout;horizontal=1;startSize=26;horizontalStack=0;resizeParent=1;resizeParentMax=0;resizeLast=0;collapsible=1;marginBottom=0;whiteSpace=wrap;html=1;" parent="2AT8lo1jDJxgE_ywK8P_-156" vertex="1">
          <mxGeometry y="150" width="205" height="90" as="geometry" />
        </mxCell>
        <mxCell id="2AT8lo1jDJxgE_ywK8P_-148" value="&lt;p style=&quot;margin:0 0 0 4px;line-height:1.6;&quot;&gt;+ run(): void&lt;/p&gt;" style="text;html=1;align=left;verticalAlign=middle;resizable=0;points=[];autosize=1;strokeColor=none;fillColor=none;" parent="2AT8lo1jDJxgE_ywK8P_-143" vertex="1">
          <mxGeometry y="26" width="205" height="30" as="geometry" />
        </mxCell>
        <mxCell id="2AT8lo1jDJxgE_ywK8P_-145" value="" style="line;strokeWidth=1;fillColor=none;align=left;verticalAlign=middle;spacingTop=-1;spacingLeft=3;spacingRight=3;rotatable=0;labelPosition=right;points=[];portConstraint=eastwest;strokeColor=inherit;" parent="2AT8lo1jDJxgE_ywK8P_-143" vertex="1">
          <mxGeometry y="56" width="205" height="8" as="geometry" />
        </mxCell>
        <mxCell id="2AT8lo1jDJxgE_ywK8P_-146" value="&lt;p style=&quot;margin:0 0 0 4px;line-height:1.6;&quot;&gt;&amp;nbsp;queue: InputQueue&lt;/p&gt;" style="text;strokeColor=none;fillColor=none;align=left;verticalAlign=top;spacingLeft=4;spacingRight=4;overflow=hidden;rotatable=0;points=[[0,0.5],[1,0.5]];portConstraint=eastwest;whiteSpace=wrap;html=1;" parent="2AT8lo1jDJxgE_ywK8P_-143" vertex="1">
          <mxGeometry y="64" width="205" height="26" as="geometry" />
        </mxCell>
        <mxCell id="2AT8lo1jDJxgE_ywK8P_-155" style="edgeStyle=orthogonalEdgeStyle;rounded=0;orthogonalLoop=1;jettySize=auto;html=1;entryX=0.75;entryY=1;entryDx=0;entryDy=0;dashed=1;endArrow=block;endFill=0;" parent="2AT8lo1jDJxgE_ywK8P_-156" source="2AT8lo1jDJxgE_ywK8P_-149" target="2AT8lo1jDJxgE_ywK8P_-142" edge="1">
          <mxGeometry relative="1" as="geometry" />
        </mxCell>
        <mxCell id="2AT8lo1jDJxgE_ywK8P_-149" value="&lt;b&gt;InputReaderGUI&lt;/b&gt;" style="swimlane;fontStyle=1;align=center;verticalAlign=top;childLayout=stackLayout;horizontal=1;startSize=26;horizontalStack=0;resizeParent=1;resizeParentMax=0;resizeLast=0;collapsible=1;marginBottom=0;whiteSpace=wrap;html=1;" parent="2AT8lo1jDJxgE_ywK8P_-156" vertex="1">
          <mxGeometry x="230" y="155" width="205" height="90" as="geometry" />
        </mxCell>
        <mxCell id="2AT8lo1jDJxgE_ywK8P_-150" value="&lt;p style=&quot;margin:0 0 0 4px;line-height:1.6;&quot;&gt;+ addTxt(String): void&lt;/p&gt;" style="text;html=1;align=left;verticalAlign=middle;resizable=0;points=[];autosize=1;strokeColor=none;fillColor=none;" parent="2AT8lo1jDJxgE_ywK8P_-149" vertex="1">
          <mxGeometry y="26" width="205" height="30" as="geometry" />
        </mxCell>
        <mxCell id="2AT8lo1jDJxgE_ywK8P_-151" value="" style="line;strokeWidth=1;fillColor=none;align=left;verticalAlign=middle;spacingTop=-1;spacingLeft=3;spacingRight=3;rotatable=0;labelPosition=right;points=[];portConstraint=eastwest;strokeColor=inherit;" parent="2AT8lo1jDJxgE_ywK8P_-149" vertex="1">
          <mxGeometry y="56" width="205" height="8" as="geometry" />
        </mxCell>
        <mxCell id="2AT8lo1jDJxgE_ywK8P_-152" value="&lt;p style=&quot;margin:0 0 0 4px;line-height:1.6;&quot;&gt;&amp;nbsp;queue: InputQueue&lt;/p&gt;" style="text;strokeColor=none;fillColor=none;align=left;verticalAlign=top;spacingLeft=4;spacingRight=4;overflow=hidden;rotatable=0;points=[[0,0.5],[1,0.5]];portConstraint=eastwest;whiteSpace=wrap;html=1;" parent="2AT8lo1jDJxgE_ywK8P_-149" vertex="1">
          <mxGeometry y="64" width="205" height="26" as="geometry" />
        </mxCell>
        <mxCell id="2AT8lo1jDJxgE_ywK8P_-157" style="edgeStyle=orthogonalEdgeStyle;rounded=0;orthogonalLoop=1;jettySize=auto;html=1;entryX=0;entryY=0.5;entryDx=0;entryDy=0;exitX=0.25;exitY=0;exitDx=0;exitDy=0;" parent="1" source="2AT8lo1jDJxgE_ywK8P_-143" target="2AT8lo1jDJxgE_ywK8P_-139" edge="1">
          <mxGeometry relative="1" as="geometry">
            <Array as="points">
              <mxPoint x="2924" y="1298" />
            </Array>
          </mxGeometry>
        </mxCell>
        <mxCell id="2AT8lo1jDJxgE_ywK8P_-164" value="" style="rounded=0;whiteSpace=wrap;html=1;fillColor=#bac8d3;strokeColor=#23445d;opacity=30;" parent="1" vertex="1">
          <mxGeometry x="520" y="60" width="1000" height="680" as="geometry" />
        </mxCell>
        <mxCell id="2AT8lo1jDJxgE_ywK8P_-159" style="edgeStyle=orthogonalEdgeStyle;rounded=0;orthogonalLoop=1;jettySize=auto;html=1;exitX=0.75;exitY=0;exitDx=0;exitDy=0;entryX=1;entryY=0.5;entryDx=0;entryDy=0;" parent="1" source="2AT8lo1jDJxgE_ywK8P_-149" target="2AT8lo1jDJxgE_ywK8P_-139" edge="1">
          <mxGeometry relative="1" as="geometry" />
        </mxCell>
        <mxCell id="2AT8lo1jDJxgE_ywK8P_-162" value="&lt;p style=&quot;margin:0px;margin-top:4px;text-align:center;&quot;&gt;&lt;i&gt;&amp;lt;&amp;lt;enumeration&amp;gt;&amp;gt;&lt;/i&gt;&lt;br&gt;&lt;b&gt;EventType&lt;/b&gt;&lt;/p&gt;&lt;hr size=&quot;1&quot;&gt;&lt;p style=&quot;margin:0 0 0 4px;line-height:1.6;&quot;&gt;+ PLAYER_JOINED: &lt;br&gt;+ NEXT_TURN: &lt;br&gt;+ SHOW_CHAT: &lt;br&gt;+ GAME_TITLE: &lt;br&gt;+ JOIN_UNABLE_NICKNAME_ALREADY_IN_USE: &lt;br&gt;+ GAMEENDED: &lt;br&gt;+ APP_MENU: &lt;br&gt;+ PLAYER_DISCONNECTED: &lt;br&gt;+ CARD_CANNOT_BE_PLACED: &lt;br&gt;+ INVALID_COORDINATES: &lt;br&gt;+ SENT_MESSAGE: &lt;br&gt;+ GAME_ID_NOT_EXISTS: &lt;br&gt;+ DRAW_CARD: &lt;br&gt;+ PLACE_CARD_ON_CODEX: &lt;br&gt;+ POSITIONED_CARD: &lt;br&gt;+ COMMON_CARDS_EXTRACTED: &lt;br&gt;+ JOIN_UNABLE_GAME_FULL: &lt;br&gt;+ PLACE_STARTER_ON_CODEX: &lt;br&gt;+ PLAYER_RECONNECTED: &lt;br&gt;+ CHOOSE_OBJECTIVE_CARD: &lt;br&gt;+ PLAYER_LEFT: &lt;br&gt;+ ERROR_WHEN_ENTERING_GAME: &lt;br&gt;+ GAMESTARTED: &lt;br&gt;+ GAMECREATED&lt;/p&gt;" style="verticalAlign=top;align=left;overflow=fill;fontSize=14;fontFamily=Helvetica;html=1;rounded=0;shadow=0;comic=0;labelBackgroundColor=none;strokeWidth=1;" parent="1" vertex="1">
          <mxGeometry x="550" y="120" width="410" height="600" as="geometry" />
        </mxCell>
        <mxCell id="2AT8lo1jDJxgE_ywK8P_-163" value="events" style="shape=umlFrame;whiteSpace=wrap;html=1;pointerEvents=0;width=90;height=40;fillColor=#bac8d3;strokeColor=#23445d;" parent="1" vertex="1">
          <mxGeometry x="520" y="60" width="1000" height="680" as="geometry" />
        </mxCell>
        <mxCell id="2AT8lo1jDJxgE_ywK8P_-175" style="edgeStyle=orthogonalEdgeStyle;rounded=0;orthogonalLoop=1;jettySize=auto;html=1;" parent="1" source="2AT8lo1jDJxgE_ywK8P_-165" target="2AT8lo1jDJxgE_ywK8P_-162" edge="1">
          <mxGeometry relative="1" as="geometry" />
        </mxCell>
        <mxCell id="2AT8lo1jDJxgE_ywK8P_-176" style="edgeStyle=orthogonalEdgeStyle;rounded=0;orthogonalLoop=1;jettySize=auto;html=1;endArrow=diamondThin;endFill=1;" parent="1" source="2AT8lo1jDJxgE_ywK8P_-165" target="2AT8lo1jDJxgE_ywK8P_-169" edge="1">
          <mxGeometry relative="1" as="geometry" />
        </mxCell>
        <mxCell id="2AT8lo1jDJxgE_ywK8P_-165" value="&lt;b&gt;Event&lt;/b&gt;" style="swimlane;fontStyle=1;align=center;verticalAlign=top;childLayout=stackLayout;horizontal=1;startSize=26;horizontalStack=0;resizeParent=1;resizeParentMax=0;resizeLast=0;collapsible=1;marginBottom=0;whiteSpace=wrap;html=1;" parent="1" vertex="1">
          <mxGeometry x="1030" y="130" width="440" height="140" as="geometry" />
        </mxCell>
        <mxCell id="2AT8lo1jDJxgE_ywK8P_-166" value="&lt;p style=&quot;margin:0 0 0 4px;line-height:1.6;&quot;&gt;- type: EventType&lt;br&gt;- gameImmutable: GameImmutable&lt;br&gt;&lt;/p&gt;" style="text;strokeColor=none;fillColor=none;align=left;verticalAlign=top;spacingLeft=4;spacingRight=4;overflow=hidden;rotatable=0;points=[[0,0.5],[1,0.5]];portConstraint=eastwest;whiteSpace=wrap;html=1;" parent="2AT8lo1jDJxgE_ywK8P_-165" vertex="1">
          <mxGeometry y="26" width="440" height="54" as="geometry" />
        </mxCell>
        <mxCell id="2AT8lo1jDJxgE_ywK8P_-167" value="" style="line;strokeWidth=1;fillColor=none;align=left;verticalAlign=middle;spacingTop=-1;spacingLeft=3;spacingRight=3;rotatable=0;labelPosition=right;points=[];portConstraint=eastwest;strokeColor=inherit;" parent="2AT8lo1jDJxgE_ywK8P_-165" vertex="1">
          <mxGeometry y="80" width="440" height="8" as="geometry" />
        </mxCell>
        <mxCell id="2AT8lo1jDJxgE_ywK8P_-168" value="&lt;p style=&quot;margin:0 0 0 4px;line-height:1.6;&quot;&gt;+ getModel(): GameImmutable&lt;br&gt;+ getType(): EventType&lt;br&gt;&lt;/p&gt;" style="text;strokeColor=none;fillColor=none;align=left;verticalAlign=top;spacingLeft=4;spacingRight=4;overflow=hidden;rotatable=0;points=[[0,0.5],[1,0.5]];portConstraint=eastwest;whiteSpace=wrap;html=1;" parent="2AT8lo1jDJxgE_ywK8P_-165" vertex="1">
          <mxGeometry y="88" width="440" height="52" as="geometry" />
        </mxCell>
        <mxCell id="2AT8lo1jDJxgE_ywK8P_-169" value="&lt;b&gt;EventList&lt;/b&gt;" style="swimlane;fontStyle=1;align=center;verticalAlign=top;childLayout=stackLayout;horizontal=1;startSize=26;horizontalStack=0;resizeParent=1;resizeParentMax=0;resizeLast=0;collapsible=1;marginBottom=0;whiteSpace=wrap;html=1;" parent="1" vertex="1">
          <mxGeometry x="1030" y="410" width="440" height="160" as="geometry" />
        </mxCell>
        <mxCell id="2AT8lo1jDJxgE_ywK8P_-170" value="&lt;p style=&quot;margin:0 0 0 4px;line-height:1.6;&quot;&gt;- lists: Queue&amp;lt;Event&amp;gt;&lt;/p&gt;" style="text;strokeColor=none;fillColor=none;align=left;verticalAlign=top;spacingLeft=4;spacingRight=4;overflow=hidden;rotatable=0;points=[[0,0.5],[1,0.5]];portConstraint=eastwest;whiteSpace=wrap;html=1;" parent="2AT8lo1jDJxgE_ywK8P_-169" vertex="1">
          <mxGeometry y="26" width="440" height="34" as="geometry" />
        </mxCell>
        <mxCell id="2AT8lo1jDJxgE_ywK8P_-171" value="" style="line;strokeWidth=1;fillColor=none;align=left;verticalAlign=middle;spacingTop=-1;spacingLeft=3;spacingRight=3;rotatable=0;labelPosition=right;points=[];portConstraint=eastwest;strokeColor=inherit;" parent="2AT8lo1jDJxgE_ywK8P_-169" vertex="1">
          <mxGeometry y="60" width="440" height="8" as="geometry" />
        </mxCell>
        <mxCell id="2AT8lo1jDJxgE_ywK8P_-172" value="&lt;p style=&quot;margin:0 0 0 4px;line-height:1.6;&quot;&gt;+ pop(): Event&lt;br&gt;+ size(): int&lt;br&gt;+ add(GameImmutable, EventType): void&lt;br&gt;+ clearEventQueue(): void&lt;br&gt;&lt;/p&gt;" style="text;strokeColor=none;fillColor=none;align=left;verticalAlign=top;spacingLeft=4;spacingRight=4;overflow=hidden;rotatable=0;points=[[0,0.5],[1,0.5]];portConstraint=eastwest;whiteSpace=wrap;html=1;" parent="2AT8lo1jDJxgE_ywK8P_-169" vertex="1">
          <mxGeometry y="68" width="440" height="92" as="geometry" />
        </mxCell>
        <mxCell id="UFMIZaM9GUYhuQorNR83-2" value="listeners" style="shape=umlFrame;whiteSpace=wrap;html=1;pointerEvents=0;width=90;height=40;fillColor=#fad9d5;strokeColor=#ae4132;" parent="1" vertex="1">
          <mxGeometry x="-410" y="340" width="610" height="880" as="geometry" />
        </mxCell>
        <mxCell id="UFMIZaM9GUYhuQorNR83-3" value="" style="rounded=0;whiteSpace=wrap;html=1;fillColor=#eeeeee;strokeColor=#36393d;opacity=30;" parent="1" vertex="1">
          <mxGeometry x="-440" y="1460" width="650" height="380" as="geometry" />
        </mxCell>
        <mxCell id="UFMIZaM9GUYhuQorNR83-4" value="socket" style="shape=umlFrame;whiteSpace=wrap;html=1;pointerEvents=0;width=90;height=40;fillColor=#eeeeee;strokeColor=#36393d;" parent="1" vertex="1">
          <mxGeometry x="-440" y="1460" width="650" height="380" as="geometry" />
        </mxCell>
      </root>
    </mxGraphModel>
  </diagram>
</mxfile>
